<svg width="50" height="50" viewBox="0 0 50 50" fill="none" xmlns="http://www.w3.org/2000/svg">
<path d="M31.2191 9.65509C30.9693 8.94819 30.299 8.4363 29.5067 8.4363H27.1118C27.0509 7.3272 26.3135 6.34607 25.2532 6.07794C24.5036 5.88902 23.7297 6.04747 23.1264 6.51061C22.5292 6.97375 22.1818 7.68065 22.1818 8.4363H19.7381C18.9459 8.4363 18.2756 8.94819 18.0257 9.65509H10V45H39.251V9.65509H31.2191ZM19.1409 10.2584C19.1409 9.92931 19.4091 9.65509 19.7442 9.65509H22.7973C22.9984 9.65509 23.1812 9.56977 23.297 9.40523C23.4128 9.2407 23.4433 9.04569 23.3762 8.86287C23.3762 8.8385 23.3762 8.77146 23.3884 8.71662C23.4006 8.62521 23.4067 8.5338 23.4067 8.4363C23.4067 8.05847 23.5773 7.70502 23.8759 7.47345C24.1806 7.23579 24.5645 7.16266 24.9546 7.26016C25.5883 7.41861 25.9966 8.10722 25.8808 8.8324V8.86897C25.8443 9.06397 25.8991 9.26507 26.021 9.41742C26.1368 9.55758 26.3562 9.66118 26.539 9.66118H29.5067C29.8358 9.66118 30.11 9.92931 30.11 10.2645V12.0988H19.1409V10.2645V10.2584ZM30.6524 13.3115C30.9998 13.3115 31.2801 13.0433 31.3166 12.7021H36.204V41.953H13.047V12.7021H17.9343C17.9709 13.0433 18.2451 13.3115 18.5986 13.3115H30.6524ZM38.0322 43.7812H11.2188V10.8739H17.9221V11.4833H11.8282V43.1718H37.4228V11.4833H31.3288V10.8739H38.0322V43.7812Z" fill="#00B0C1"/>
<path d="M25.2349 7.8269H24.0161V9.04569H25.2349V7.8269Z" fill="#00B0C1"/>
<path d="M15.4846 21.2336H21.5786V18.796H20.3598V20.0148H16.7034V16.3584H19.141V15.1396H15.4846V21.2336Z" fill="#00B0C1"/>
<path d="M17.8182 16.6327L16.8066 17.303L18.4337 19.7528L22.0108 16.1817L21.1455 15.3164L18.6287 17.8393L17.8182 16.6327Z" fill="#00B0C1"/>
<path d="M21.5786 27.9369H20.3598V29.1557H16.7034V25.4993H19.141V24.2805H15.4846V30.3745H21.5786V27.9369Z" fill="#00B0C1"/>
<path d="M18.6287 26.9802L17.8182 25.7736L16.8066 26.4439L18.4337 28.8937L22.0108 25.3226L21.1455 24.4573L18.6287 26.9802Z" fill="#00B0C1"/>
<path d="M20.3598 38.2967H16.7034V34.6403H19.141V33.4215H15.4846V39.5155H21.5786V37.0779H20.3598V38.2967Z" fill="#00B0C1"/>
<path d="M18.6287 36.1212L17.8182 34.9146L16.8066 35.5849L18.4337 38.0347L22.0108 34.4636L21.1455 33.5983L18.6287 36.1212Z" fill="#00B0C1"/>
<path d="M34.9853 20.0148H22.7974V21.2336H34.9853V20.0148Z" fill="#00B0C1"/>
<path d="M34.9853 29.1558H22.7974V30.3746H34.9853V29.1558Z" fill="#00B0C1"/>
<path d="M34.9853 38.2966H22.7974V39.5154H34.9853V38.2966Z" fill="#00B0C1"/>
</svg>
