<svg width="119" height="70" viewBox="0 0 119 70" fill="none" xmlns="http://www.w3.org/2000/svg">
<g clip-path="url(#clip0_242_6651)">
<path d="M95.2831 0.043874H88.3245C78.1335 12.8758 68.9371 24.1011 58.6549 37.0837V37.0868C61.0752 37.0868 63.1209 37.2029 65.217 37.0272C66.0165 36.9613 67.2156 36.4027 67.738 35.7782C70.5958 32.367 72.6226 30.0134 75.3796 26.5394C80.2296 20.4263 84.5603 14.31 89.6841 7.85164C91.7739 15.5747 93.7472 22.8897 95.8308 30.5877C93.3066 30.5877 89.4386 30.6191 88.6297 30.5814C87.7328 30.5406 87.204 29.6619 87.1537 28.8774C87.0152 26.6304 86.9302 24.2988 86.8043 22.7768L75.5527 38.1507H101.329C103.957 38.1507 105.867 35.6652 105.184 33.1359C102.286 22.3876 99.4092 11.7304 96.5074 0.972772C96.3595 0.420454 95.8591 0.0375977 95.2863 0.0375977L95.2831 0.043874Z" fill="#19264F"/>
<path d="M54.3117 16.1239L51.2021 0.828512C51.1077 0.37034 50.7175 0.0345555 50.2548 0.00317383L40.6115 13.4L43.5605 27.9046L54.3148 16.1239H54.3117Z" fill="#19264F"/>
<path d="M50.5979 0.0910069C50.5979 0.0910069 50.601 0.0910069 50.6042 0.0910069C50.5853 0.0815924 50.5664 0.0784542 50.5475 0.0690397C50.5255 0.0596252 50.5066 0.0533489 50.4846 0.0470725C50.4594 0.0407962 50.4342 0.0345199 50.4059 0.0282435C50.3838 0.0219672 50.3618 0.018829 50.3398 0.0156908C50.3209 0.0156908 50.3052 0.00941451 50.2894 0.00627634C50.2768 0.00627634 50.2548 0.00627634 50.2548 0.00627634C50.2107 0.00313817 50.1289 0 50.1289 0H39.1575H38.0842C37.4737 0 36.9009 0.29185 36.5452 0.787681L13.9414 32.1819C12.2513 34.5293 9.94744 36.3714 7.28169 37.5105L5.97241 38.0691H18.9172C21.3847 38.0691 23.7011 36.8829 25.1394 34.8839L40.6052 13.4031L49.9621 0.4111C50.0943 0.282435 50.2737 0.200843 50.4751 0.197705C50.7238 0.197705 50.9409 0.316955 51.0763 0.505245C50.9661 0.320093 50.7993 0.175737 50.601 0.0910069H50.5979Z" fill="#294076"/>
<path d="M77.3467 16.1239L74.2372 0.828512C74.1428 0.37034 73.7525 0.0345555 73.2899 0.00317383L63.6465 13.4L66.5956 27.9046L77.3499 16.1239H77.3467Z" fill="#19264F"/>
<path d="M73.6329 0.0910069C73.6329 0.0910069 73.636 0.0910069 73.6392 0.0910069C73.6203 0.0815924 73.6014 0.0784542 73.5825 0.0690397C73.5605 0.0596252 73.5416 0.0533489 73.5196 0.0470725C73.4944 0.0407962 73.4692 0.0345199 73.4409 0.0282435C73.4189 0.0219672 73.3969 0.018829 73.3748 0.0156908C73.3591 0.0156908 73.3402 0.00941451 73.3245 0.00627634C73.3119 0.00627634 73.2899 0.00627634 73.2899 0.00627634C73.2458 0.00313817 73.164 0 73.164 0H62.1925H61.1193C60.5087 0 59.9359 0.29185 59.5802 0.787681L36.9764 32.1819C35.2863 34.5293 32.9825 36.3714 30.3167 37.5105L29.0074 38.0691H41.9523C44.4197 38.0691 46.7361 36.8829 48.1745 34.8839L63.6402 13.4031L72.9971 0.4111C73.1293 0.282435 73.3087 0.200843 73.5102 0.197705C73.7588 0.197705 73.976 0.316955 74.1113 0.505245C74.0011 0.320093 73.8343 0.175737 73.636 0.0910069H73.6329Z" fill="#294076"/>
<path d="M95.7552 0.0910069C95.7552 0.0910069 95.7584 0.0910069 95.7615 0.0910069C95.7426 0.0815924 95.7238 0.0784542 95.7017 0.0690397C95.6797 0.0596252 95.6608 0.0533489 95.6388 0.0470725C95.6136 0.0407962 95.5884 0.0345199 95.5601 0.0282435C95.5381 0.0219672 95.516 0.018829 95.494 0.0156908C95.4783 0.0156908 95.4594 0.00941451 95.4436 0.00627634C95.4311 0.00627634 95.409 0.00627634 95.409 0.00627634C95.365 0.00313817 95.2831 0 95.2831 0H84.3117H83.2384C82.6279 0 82.0551 0.29185 81.6994 0.787681L59.0956 32.1819C57.4055 34.5293 55.1016 36.3714 52.4359 37.5105L51.1266 38.0691H64.0714C66.5389 38.0691 68.8553 36.8829 70.2936 34.8839L85.7594 13.4031L95.1163 0.4111C95.2485 0.282435 95.4279 0.200843 95.6293 0.197705C95.878 0.197705 96.0951 0.316955 96.2305 0.505245C96.1203 0.320093 95.9535 0.175737 95.7552 0.0910069Z" fill="#294076"/>
<path d="M105.276 33.8609C105.257 33.613 105.213 33.3651 105.144 33.114C105.021 32.6809 104.835 32.0156 104.716 31.5857L104.486 30.6631H104.483C104.284 29.9319 104.086 29.1976 103.891 28.4664C103.941 28.6264 103.97 28.799 103.97 28.9779C103.97 29.4518 103.778 29.8786 103.469 30.1892C103.148 30.5093 102.698 30.6662 102.245 30.6662H88.9162C87.9468 30.6662 87.1474 29.9068 87.1033 28.9434L86.8075 22.7894L80.173 31.8744L75.4835 38.11H101.285C102.997 38.11 104.457 37.0493 105.052 35.5524C105.203 35.1664 105.301 34.7553 105.329 34.3222C105.339 34.1716 105.317 34.0178 105.285 33.8703L105.276 33.8609Z" fill="url(#paint0_linear_242_6651)"/>
<path d="M37.6625 69.9529V66.3817H38.0591L39.3306 68.5345H39.34L40.6084 66.3817H41.0238V69.9529H40.6304V67.0407H40.621L39.5163 68.8922H39.148L38.0465 67.0407H38.037V69.9529H37.6594H37.6625Z" fill="#595857"/>
<path d="M42.2922 68.8137C42.2985 69.0899 42.3835 69.3096 42.5471 69.4696C42.7108 69.6297 42.9216 69.7113 43.1829 69.7113C43.4441 69.7113 43.6896 69.6454 43.9382 69.5136L44.0326 69.7897C43.7588 69.9247 43.463 69.9937 43.1514 69.9937C42.7832 69.9937 42.4873 69.8744 42.2639 69.6391C42.0404 69.4037 41.9271 69.0805 41.9271 68.6788C41.9271 68.2771 42.031 67.9445 42.2418 67.7091C42.4527 67.4737 42.7391 67.3545 43.1042 67.3545C43.4693 67.3545 43.7305 67.4643 43.9225 67.6871C44.1145 67.9099 44.2089 68.23 44.2089 68.6506C44.2089 68.729 44.2089 68.7792 44.2026 68.8075H42.289L42.2922 68.8137ZM42.2922 68.5344H43.8627C43.8595 68.252 43.7903 68.0323 43.6581 67.8817C43.5228 67.7279 43.3402 67.6526 43.1073 67.6526C42.8618 67.6526 42.6667 67.7311 42.5251 67.8848C42.3803 68.0386 42.3048 68.2551 42.2953 68.5376L42.2922 68.5344Z" fill="#595857"/>
<path d="M44.9926 68.682C44.9926 68.2552 45.0838 67.9288 45.2664 67.6997C45.4489 67.4738 45.7007 67.3577 46.0217 67.3577C46.3931 67.3577 46.6669 67.5146 46.8463 67.8253H46.8557V66.2844H47.2145V69.9498H46.8715L46.8652 69.5199H46.8557C46.6764 69.8368 46.3994 69.9969 46.0217 69.9969C45.7101 69.9969 45.4584 69.8839 45.2727 69.6548C45.087 69.4257 44.9926 69.0994 44.9926 68.682ZM45.3482 68.682C45.3482 69.0084 45.4174 69.2625 45.5528 69.4414C45.6881 69.6203 45.8738 69.7082 46.1067 69.7082C46.3396 69.7082 46.5095 69.6203 46.6512 69.4477C46.7897 69.2751 46.8589 69.0303 46.8589 68.7134V68.6475C46.8589 68.3399 46.7897 68.0951 46.648 67.9194C46.5064 67.7437 46.327 67.6558 46.1067 67.6558C45.8675 67.6558 45.6818 67.7437 45.5496 67.9194C45.4174 68.0951 45.3513 68.3493 45.3513 68.682H45.3482Z" fill="#595857"/>
<path d="M48.187 66.3817H50.8056V66.7175H49.6946V69.9529H49.3012V66.7175H48.187V66.3817Z" fill="#595857"/>
<path d="M51.5106 68.8137C51.5169 69.0899 51.6019 69.3096 51.7655 69.4696C51.9292 69.6297 52.14 69.7113 52.4013 69.7113C52.6625 69.7113 52.908 69.6454 53.1566 69.5136L53.251 69.7897C52.9772 69.9247 52.6814 69.9937 52.3698 69.9937C52.0016 69.9937 51.7057 69.8744 51.4823 69.6391C51.2588 69.4037 51.1455 69.0805 51.1455 68.6788C51.1455 68.2771 51.2494 67.9445 51.4602 67.7091C51.6711 67.4737 51.9575 67.3545 52.3226 67.3545C52.6877 67.3545 52.9489 67.4643 53.1409 67.6871C53.3329 67.9099 53.4273 68.23 53.4273 68.6506C53.4273 68.729 53.4273 68.7792 53.421 68.8075H51.5074L51.5106 68.8137ZM51.5106 68.5344H53.0811C53.0779 68.252 53.0087 68.0323 52.8765 67.8817C52.7412 67.7279 52.5586 67.6526 52.3257 67.6526C52.0803 67.6526 51.8851 67.7311 51.7435 67.8848C51.5987 68.0386 51.5232 68.2551 51.5137 68.5376L51.5106 68.5344Z" fill="#595857"/>
<path d="M55.4762 67.6621C55.1898 67.6621 54.9632 67.7499 54.8027 67.9257C54.6421 68.1014 54.5603 68.3525 54.5603 68.682C54.5603 68.9927 54.6453 69.2437 54.8152 69.4289C54.9852 69.614 55.2055 69.7082 55.4762 69.7082C55.7059 69.7082 55.9231 69.6548 56.1308 69.5418L56.2252 69.8274C55.9797 69.9435 55.7248 70 55.4604 70C55.0796 70 54.7743 69.8808 54.5383 69.6423C54.3054 69.4038 54.1858 69.0837 54.1858 68.682C54.1858 68.2803 54.2991 67.9445 54.5225 67.7091C54.746 67.4769 55.0576 67.3577 55.4573 67.3577C55.7217 67.3577 55.9766 67.4142 56.2221 67.5303L56.1277 67.8315C55.9105 67.7154 55.6933 67.6589 55.473 67.6589L55.4762 67.6621Z" fill="#595857"/>
<path d="M57.2292 66.2876H57.588V67.8472H57.5975C57.8146 67.5271 58.101 67.364 58.4535 67.3608C58.7399 67.3608 58.9539 67.4487 59.0924 67.6276C59.2309 67.8064 59.3001 68.0889 59.3001 68.4717V69.9498H58.9476V68.5C58.9476 68.1862 58.9036 67.9665 58.8123 67.8441C58.721 67.7217 58.5637 67.6621 58.3371 67.6621C58.1419 67.6621 57.9688 67.7562 57.8178 67.9477C57.6667 68.1391 57.5912 68.3525 57.5912 68.591V69.9498H57.2324V66.2844L57.2292 66.2876Z" fill="#595857"/>
<path d="M63.0549 66.6547C62.8282 66.6547 62.652 66.7049 62.5293 66.8022C62.4034 66.8995 62.3436 67.0376 62.3436 67.2165C62.3436 67.5334 62.5765 67.7594 63.0423 67.9006C63.4483 68.0198 63.7347 68.1642 63.9046 68.3399C64.0746 68.5157 64.1595 68.7416 64.1595 69.024C64.1595 69.3379 64.062 69.5826 63.8637 69.749C63.6654 69.9184 63.3853 70.0032 63.0202 70.0032C62.6142 70.0032 62.2554 69.9027 61.9376 69.6987L62.0572 69.3724C62.3404 69.5732 62.6614 69.6736 63.0202 69.6768C63.2626 69.6768 63.4483 69.6203 63.5773 69.5105C63.7063 69.4006 63.7693 69.2374 63.7693 69.024C63.7693 68.8295 63.7158 68.6757 63.6056 68.5596C63.4986 68.4435 63.3066 68.3431 63.0328 68.2615C62.3184 68.0481 61.9596 67.6997 61.9596 67.2196C61.9596 66.9528 62.0572 66.7395 62.2491 66.5794C62.4411 66.4194 62.7118 66.3378 63.0549 66.3378C63.4231 66.3378 63.7693 66.4162 64.084 66.5669L63.9833 66.8713C63.7 66.7269 63.3885 66.6547 63.0549 66.6547Z" fill="#595857"/>
<path d="M65.3052 68.8137C65.3115 69.0899 65.3965 69.3096 65.5601 69.4696C65.7238 69.6297 65.9346 69.7113 66.1959 69.7113C66.4571 69.7113 66.7026 69.6454 66.9512 69.5136L67.0456 69.7897C66.7718 69.9247 66.476 69.9937 66.1644 69.9937C65.7962 69.9937 65.5003 69.8744 65.2769 69.6391C65.0534 69.4037 64.9401 69.0805 64.9401 68.6788C64.9401 68.2771 65.044 67.9445 65.2548 67.7091C65.4657 67.4737 65.7521 67.3545 66.1172 67.3545C66.4823 67.3545 66.7435 67.4643 66.9355 67.6871C67.1275 67.9099 67.2219 68.23 67.2219 68.6506C67.2219 68.729 67.2219 68.7792 67.2156 68.8075H65.302L65.3052 68.8137ZM65.3052 68.5344H66.8757C66.8757 68.252 66.8033 68.0323 66.6711 67.8817C66.5358 67.7279 66.3532 67.6526 66.1203 67.6526C65.8748 67.6526 65.6797 67.7311 65.5381 67.8848C65.3933 68.0386 65.3178 68.2551 65.3083 68.5376L65.3052 68.5344Z" fill="#595857"/>
<path d="M68.1094 67.4142H68.4619L68.4682 67.954H68.4776C68.764 67.5585 69.1732 67.3608 69.6988 67.3608V67.6715C69.3369 67.6715 69.041 67.7719 68.8144 67.9696C68.5909 68.1673 68.4776 68.4247 68.4776 68.7385V69.9498H68.1094V67.4111V67.4142Z" fill="#595857"/>
<path d="M70.8287 67.4142L71.6186 69.7333H71.6281L72.4212 67.4142H72.8083L71.8704 69.953H71.3574L70.4227 67.4142H70.8255H70.8287Z" fill="#595857"/>
<path d="M73.8375 66.8242V66.2844H74.2215V66.8242H73.8375ZM73.8375 69.9498V67.411H74.2215V69.9498H73.8375Z" fill="#595857"/>
<path d="M76.5599 67.6621C76.2735 67.6621 76.0469 67.7499 75.8864 67.9257C75.7259 68.1014 75.644 68.3525 75.644 68.682C75.644 68.9927 75.729 69.2437 75.899 69.4289C76.0689 69.614 76.2892 69.7082 76.5599 69.7082C76.7896 69.7082 77.0068 69.6548 77.2145 69.5418L77.3089 69.8274C77.0635 69.9435 76.8085 70 76.5442 70C76.1633 70 75.858 69.8808 75.622 69.6423C75.3891 69.4038 75.2695 69.0837 75.2695 68.682C75.2695 68.2803 75.3828 67.9445 75.6063 67.7091C75.8297 67.4769 76.1413 67.3577 76.541 67.3577C76.8054 67.3577 77.0603 67.4142 77.3058 67.5303L77.2114 67.8315C76.9942 67.7154 76.7771 67.6589 76.5567 67.6589L76.5599 67.6621Z" fill="#595857"/>
<path d="M78.4797 68.8137C78.486 69.0899 78.571 69.3096 78.7347 69.4696C78.8983 69.6297 79.1092 69.7113 79.3704 69.7113C79.6316 69.7113 79.8771 69.6454 80.1258 69.5136L80.2202 69.7897C79.9464 69.9247 79.6505 69.9937 79.3389 69.9937C78.9707 69.9937 78.6749 69.8744 78.4514 69.6391C78.228 69.4037 78.1147 69.0805 78.1147 68.6788C78.1147 68.2771 78.2185 67.9445 78.4294 67.7091C78.6403 67.4737 78.9267 67.3545 79.2917 67.3545C79.6568 67.3545 79.918 67.4643 80.11 67.6871C80.302 67.9099 80.3964 68.23 80.3964 68.6506C80.3964 68.729 80.3964 68.7792 80.3901 68.8075H78.4766L78.4797 68.8137ZM78.4797 68.5344H80.0502C80.0502 68.252 79.9778 68.0323 79.8457 67.8817C79.7103 67.7279 79.5278 67.6526 79.2949 67.6526C79.0494 67.6526 78.8543 67.7311 78.7126 67.8848C78.5679 68.0386 78.4923 68.2551 78.4829 68.5376L78.4797 68.5344Z" fill="#595857"/>
<path d="M82.1243 67.3608C82.4359 67.3608 82.7254 67.4267 82.9898 67.5554L82.908 67.8473C82.6562 67.7217 82.395 67.6558 82.1243 67.6558C81.9355 67.6558 81.7938 67.6903 81.6931 67.7594C81.5956 67.8284 81.5452 67.9257 81.5452 68.0481C81.5452 68.1705 81.5861 68.2584 81.6711 68.3274C81.7561 68.3964 81.9134 68.4498 82.1432 68.4874C82.4737 68.5408 82.716 68.6318 82.8608 68.7605C83.0087 68.8891 83.0811 69.0617 83.0811 69.2814C83.0811 69.5011 82.9961 69.6768 82.8262 69.8055C82.6562 69.9341 82.4233 70 82.1212 70C81.7687 70 81.4571 69.9184 81.177 69.7584L81.262 69.4728C81.5295 69.6329 81.8159 69.7113 82.118 69.7113C82.3069 69.7113 82.4516 69.6768 82.5523 69.6015C82.6531 69.5293 82.7066 69.4226 82.7066 69.2877C82.7066 69.1527 82.6625 69.0555 82.5712 68.9833C82.48 68.9111 82.3226 68.8546 82.0991 68.8138C81.775 68.7605 81.5421 68.6726 81.3941 68.5502C81.2462 68.4278 81.1738 68.2615 81.1738 68.0512C81.1738 67.841 81.2557 67.6747 81.4225 67.5491C81.5893 67.4267 81.819 67.364 82.118 67.364L82.1243 67.3608Z" fill="#595857"/>
<path d="M26.9397 58.0217C27.1096 57.9903 27.2638 58.0217 27.3992 58.1189C27.544 58.2162 27.6289 58.348 27.6541 58.5175C27.6856 58.6869 27.6541 58.8407 27.5565 58.9757C26.9271 59.8857 26.1151 60.5981 25.1205 61.1128C24.1354 61.6274 23.0905 61.8847 21.9827 61.8847C20.1006 61.8847 18.4986 61.2257 17.1736 59.9046C15.8486 58.5834 15.1877 56.9892 15.1877 55.122C15.1877 53.2548 15.8486 51.648 17.1736 50.3269C18.4986 49.0057 20.1006 48.3467 21.9827 48.3467C23.8648 48.3467 25.4542 49.0057 26.7792 50.3269C28.1042 51.648 28.7651 53.2454 28.7651 55.122C28.7651 55.2914 28.7053 55.4358 28.5826 55.5582C28.4598 55.6712 28.315 55.7277 28.1451 55.7277H16.456C16.5945 57.0174 17.1233 58.1189 18.0423 59.0384C19.1312 60.118 20.4437 60.6577 21.9795 60.6577C22.8923 60.6577 23.7483 60.4475 24.5477 60.0301C25.3566 59.6127 26.0207 59.029 26.5463 58.279C26.6438 58.1409 26.7729 58.0562 26.9334 58.0248L26.9397 58.0217ZM16.4623 54.5069H27.4967C27.3583 53.2171 26.8295 52.1156 25.9105 51.1961C24.8278 50.1166 23.5186 49.5768 21.9858 49.5768C20.4531 49.5768 19.1375 50.1166 18.0486 51.1961C17.1264 52.1156 16.5977 53.2171 16.4623 54.5069Z" fill="#1D3042"/>
<path d="M58.0727 61.2696C58.0727 61.4391 58.0129 61.5835 57.8902 61.7059C57.7674 61.8282 57.6226 61.8879 57.4527 61.8879C57.2827 61.8879 57.138 61.8282 57.0152 61.7059C56.8956 61.5835 56.8327 61.4391 56.8327 61.2696V45.265C56.8327 45.0955 56.8925 44.9512 57.0152 44.8319C57.1348 44.7095 57.2827 44.6499 57.4527 44.6499C57.6226 44.6499 57.7674 44.7095 57.8902 44.8319C58.0098 44.9512 58.0727 45.0987 58.0727 45.265V61.2696Z" fill="#9F9E9F"/>
<path d="M61.1035 61.2696C61.1035 61.4391 61.0437 61.5835 60.921 61.7059C60.7982 61.8282 60.6535 61.8879 60.4835 61.8879C60.3136 61.8879 60.1688 61.8282 60.046 61.7059C59.9264 61.5835 59.8635 61.4391 59.8635 61.2696V45.265C59.8635 45.0955 59.9233 44.9512 60.046 44.8319C60.1656 44.7095 60.3136 44.6499 60.4835 44.6499C60.6535 44.6499 60.7982 44.7095 60.921 44.8319C61.0406 44.9512 61.1035 45.0987 61.1035 45.265V61.2696Z" fill="#9F9E9F"/>
<path d="M63.6654 61.2696C63.6654 61.4391 63.6056 61.5834 63.4829 61.7058C63.3602 61.8282 63.2154 61.8878 63.0454 61.8878C62.8755 61.8878 62.7307 61.8282 62.608 61.7058C62.4884 61.5834 62.4254 61.4391 62.4254 61.2696V48.9617C62.4254 48.7923 62.4852 48.6479 62.608 48.5255C62.7276 48.4031 62.8755 48.3435 63.0454 48.3435C63.2154 48.3435 63.3602 48.4031 63.4829 48.5255C63.6025 48.6479 63.6654 48.7923 63.6654 48.9617V61.2696Z" fill="#9F9E9F"/>
<path d="M78.058 61.2697C78.058 61.4391 77.9982 61.5835 77.8755 61.7059C77.7527 61.8283 77.608 61.8879 77.438 61.8879C77.268 61.8879 77.1233 61.8283 77.0005 61.7059C76.8809 61.5835 76.818 61.4391 76.818 61.2697V59.0102C76.5914 59.3334 76.3427 59.6315 76.0658 59.9046C74.7408 61.2257 73.1419 61.8847 71.2693 61.8847C69.3967 61.8847 67.7853 61.2257 66.4602 59.9046C65.1352 58.5834 64.4743 56.9892 64.4743 55.122C64.4743 53.2548 65.1352 51.648 66.4602 50.3269C67.7853 49.0057 69.3872 48.3467 71.2693 48.3467C73.1514 48.3467 74.7408 49.0057 76.0658 50.3269C77.3908 51.648 78.0517 53.2454 78.0517 55.122V61.2697H78.058ZM71.2725 49.5768C69.7366 49.5768 68.4242 50.1166 67.3352 51.1961C66.2525 52.2819 65.7112 53.5906 65.7112 55.122C65.7112 56.6534 66.2525 57.9558 67.3352 59.0353C68.4242 60.1148 69.7366 60.6546 71.2725 60.6546C72.8083 60.6546 74.1145 60.1148 75.1971 59.0353C76.2798 57.9558 76.8211 56.6534 76.8211 55.122C76.8211 53.5906 76.2798 52.2851 75.1971 51.1961C74.1145 50.1166 72.8052 49.5768 71.2725 49.5768Z" fill="#9F9E9F"/>
<path d="M92.6079 61.2697C92.6079 61.4391 92.5481 61.5835 92.4254 61.7059C92.3058 61.8283 92.1579 61.8879 91.9879 61.8879C91.818 61.8879 91.6732 61.8283 91.5504 61.7059C91.4277 61.5835 91.3679 61.4391 91.3679 61.2697V55.122C91.3679 53.5906 90.8266 52.2851 89.7439 51.1961C88.6612 50.1166 87.3519 49.5768 85.8192 49.5768C84.2865 49.5768 82.9709 50.1166 81.882 51.1961C80.7993 52.2819 80.2579 53.5906 80.2579 55.122V61.2697C80.2579 61.4391 80.1981 61.5835 80.0754 61.7059C79.9527 61.8283 79.8079 61.8879 79.6379 61.8879C79.468 61.8879 79.3232 61.8283 79.2005 61.7059C79.0809 61.5835 79.0179 61.4391 79.0179 61.2697V55.122C79.0179 53.2454 79.6788 51.648 81.0039 50.3269C82.3289 49.0057 83.9308 48.3467 85.8129 48.3467C87.695 48.3467 89.2844 49.0057 90.6094 50.3269C91.9344 51.648 92.5953 53.2454 92.5953 55.122V61.2697H92.6079Z" fill="#9F9E9F"/>
<path d="M104.498 58.7466C104.668 58.7372 104.813 58.7936 104.936 58.916C105.059 59.029 105.122 59.1702 105.131 59.3397C105.131 59.5091 105.074 59.6566 104.961 59.7853C104.316 60.4537 103.567 60.9747 102.72 61.3418C101.864 61.7027 100.97 61.8847 100.042 61.8847C98.1597 61.8847 96.5578 61.2257 95.2328 59.9046C93.9078 58.5834 93.2468 56.9892 93.2468 55.122C93.2468 53.2548 93.9078 51.648 95.2328 50.3269C96.5578 49.0057 98.1597 48.3467 100.042 48.3467C100.97 48.3467 101.864 48.5287 102.72 48.8896L102.745 48.9021C103.586 49.2724 104.325 49.7871 104.961 50.4493C105.074 50.5779 105.131 50.7286 105.131 50.898C105.122 51.0675 105.059 51.2087 104.936 51.3217C104.816 51.4409 104.668 51.4974 104.498 51.4911C104.328 51.4911 104.184 51.4315 104.061 51.3091C103.545 50.7631 102.944 50.3394 102.254 50.0413L102.217 50.0287C101.521 49.7306 100.794 49.5831 100.036 49.5831C98.4997 49.5831 97.1872 50.1229 96.0983 51.2024C95.0156 52.2882 94.4743 53.5968 94.4743 55.1283C94.4743 56.6597 95.0156 57.962 96.0983 59.0416C97.1872 60.1211 98.4997 60.6609 100.036 60.6609C100.794 60.6609 101.521 60.5134 102.217 60.2152H102.229C102.925 59.9171 103.532 59.4903 104.058 58.9349C104.177 58.8125 104.325 58.7528 104.495 58.7528L104.498 58.7466Z" fill="#9F9E9F"/>
<path d="M116.823 58.0217C116.993 57.9903 117.147 58.0217 117.283 58.1189C117.427 58.2162 117.512 58.348 117.538 58.5175C117.569 58.6869 117.538 58.8407 117.44 58.9757C116.811 59.8857 115.999 60.5981 115.004 61.1128C114.019 61.6274 112.974 61.8847 111.866 61.8847C109.984 61.8847 108.382 61.2257 107.057 59.9046C105.732 58.5834 105.071 56.9892 105.071 55.122C105.071 53.2548 105.732 51.648 107.057 50.3269C108.382 49.0057 109.984 48.3467 111.866 48.3467C113.748 48.3467 115.338 49.0057 116.663 50.3269C117.988 51.648 118.649 53.2454 118.649 55.122C118.649 55.2914 118.589 55.4358 118.466 55.5582C118.343 55.6712 118.199 55.7277 118.029 55.7277H106.34C106.478 57.0174 107.007 58.1189 107.926 59.0384C109.015 60.118 110.327 60.6577 111.863 60.6577C112.776 60.6577 113.632 60.4475 114.431 60.0301C115.24 59.6127 115.904 59.029 116.43 58.279C116.527 58.1409 116.656 58.0562 116.817 58.0248L116.823 58.0217ZM106.346 54.5069H117.38C117.242 53.2171 116.713 52.1156 115.794 51.1961C114.711 50.1166 113.402 49.5768 111.869 49.5768C110.337 49.5768 109.021 50.1166 107.932 51.1961C107.01 52.1156 106.481 53.2171 106.346 54.5069Z" fill="#9F9E9F"/>
<path d="M53.3801 50.3049C52.0551 48.9837 50.4563 48.3247 48.5836 48.3247C46.8463 48.3247 45.3482 48.8959 44.0861 50.0225C43.9823 50.1166 43.8753 50.2045 43.7746 50.308C43.6203 50.4618 43.485 50.6218 43.3497 50.7819V53.8134C43.5007 52.9974 43.8123 52.2506 44.297 51.5727C44.4072 51.4378 44.5205 51.306 44.6495 51.1804C45.7385 50.1009 47.0509 49.5611 48.5868 49.5611C50.1226 49.5611 51.4288 50.1009 52.5114 51.1804C53.5941 52.2694 54.1354 53.5749 54.1354 55.1063C54.1354 56.6377 53.5941 57.9401 52.5114 59.0196C51.4288 60.0991 50.1195 60.6389 48.5868 60.6389C47.054 60.6389 45.7385 60.0991 44.6495 59.0196C43.6518 58.0248 43.1199 56.8354 43.0412 55.4546H41.8044C41.883 57.1712 42.5345 58.6524 43.7746 59.8889C45.0996 61.21 46.7015 61.869 48.5836 61.869C50.4657 61.869 52.0551 61.21 53.3801 59.8889C53.6539 59.6158 53.9057 59.3177 54.1323 58.9945V61.254C54.1323 61.4234 54.1921 61.5678 54.3148 61.6902C54.4344 61.8126 54.5824 61.8722 54.7523 61.8722C54.9223 61.8722 55.067 61.8126 55.1898 61.6902C55.3094 61.5678 55.3723 61.4234 55.3723 61.254V55.1063C55.3723 53.2297 54.7114 51.6323 53.3864 50.3112L53.3801 50.3049Z" fill="#9F9E9F"/>
<path d="M36.2494 49.5768C37.7821 49.5768 39.0914 50.1166 40.174 51.1961C41.1843 52.2098 41.7162 53.4211 41.7854 54.8207C41.7854 54.8615 41.7886 55.4295 41.7886 55.4703H43.0318V45.265C43.0318 45.0955 42.972 44.9512 42.8492 44.8319C42.7265 44.7095 42.5817 44.6499 42.4118 44.6499C42.2418 44.6499 42.097 44.7095 41.9743 44.8319C41.8547 44.9512 41.7917 45.0987 41.7917 45.265V51.2212C41.5651 50.898 41.3165 50.5999 41.0395 50.3268C39.7145 49.0057 38.1157 48.3467 36.2431 48.3467C34.3704 48.3467 32.759 49.0057 31.434 50.3268C30.109 51.648 29.4481 53.2453 29.4481 55.122C29.4481 56.9986 30.109 58.5865 31.434 59.9045C32.759 61.2257 34.361 61.8847 36.2431 61.8847C38.1251 61.8847 39.7145 61.2257 41.0395 59.9045C41.2347 59.71 42.1159 58.7779 42.2796 58.5708C42.2796 58.5708 41.5557 57.4348 41.5746 56.5436C41.5211 56.7444 41.3857 57.4442 40.986 57.9934H40.9923C40.7657 58.3606 40.4951 58.712 40.1677 59.0384C39.0851 60.1179 37.7758 60.6577 36.2431 60.6577C34.7103 60.6577 33.3948 60.1179 32.3058 59.0384C31.2231 57.9589 30.6818 56.6565 30.6818 55.1251C30.6818 53.5937 31.2231 52.2882 32.3058 51.1993C33.3948 50.1197 34.7072 49.58 36.2431 49.58L36.2494 49.5768Z" fill="#1D3042"/>
<path d="M0.971373 62.6598C0.625171 62.6598 0.345062 62.3805 0.345062 62.0353V48.1332C0.345062 47.7064 0.622024 47.3424 1.03117 47.2263C1.44032 47.1071 1.86835 47.2702 2.0981 47.6311L7.16839 55.6429H7.31002L12.2922 47.5684C12.5156 47.2043 12.9437 47.038 13.3591 47.1541C13.7714 47.2702 14.0484 47.6343 14.0484 48.0642V61.847C14.0484 62.1922 13.7683 62.4715 13.4221 62.4715C13.0759 62.4715 12.7958 62.1922 12.7958 61.847V49.1437L8.3801 56.2988C8.13776 56.6942 7.71287 56.9327 7.24707 56.9327H7.24078C6.77813 56.9327 6.35639 56.7004 6.1109 56.3113L1.60398 49.1939V62.0416C1.60398 62.3868 1.32387 62.6661 0.977668 62.6661L0.971373 62.6598Z" fill="#1D3042"/>
</g>
<defs>
<linearGradient id="paint0_linear_242_6651" x1="75.4772" y1="30.4434" x2="105.323" y2="30.4434" gradientUnits="userSpaceOnUse">
<stop stop-color="#1A2D55"/>
<stop offset="1" stop-color="#294076"/>
</linearGradient>
<clipPath id="clip0_242_6651">
<rect width="118.31" height="70" fill="white" transform="translate(0.345062)"/>
</clipPath>
</defs>
</svg>
