<svg width="290" height="40" viewBox="0 0 290 40" fill="none" xmlns="http://www.w3.org/2000/svg">
<g clip-path="url(#clip0_111_460)">
<path d="M89.8546 1.25022H82.8787C72.6665 14.2977 63.4485 25.7103 53.1451 38.91C55.5734 38.91 57.6214 39.0262 59.7209 38.8499C60.5211 38.7818 61.7214 38.2168 62.2482 37.5796C65.1123 34.1094 67.1444 31.7171 69.9054 28.1867C74.766 21.9715 79.1076 15.7523 84.2414 9.1845C86.337 17.0386 88.3136 24.472 90.4013 32.3021C87.87 32.3021 83.9919 32.3342 83.1877 32.2981C82.2885 32.258 81.7577 31.3644 81.7101 30.567C81.5715 28.2829 81.4843 25.9146 81.3576 24.3638L70.0837 39.996H95.9154C98.5497 39.996 100.463 37.4674 99.7777 34.8948C96.8701 23.9671 93.9902 13.1316 91.0826 2.19593C90.9321 1.63492 90.4329 1.24622 89.8586 1.24622L89.8546 1.25022Z" fill="#19264F"/>
<path d="M48.7917 17.6037L45.6781 2.05168C45.583 1.58284 45.1908 1.24623 44.7274 1.21417L35.0618 14.8347L38.0169 29.5812L48.7917 17.6037Z" fill="#19264F"/>
<path d="M45.072 1.29834C45.072 1.29834 45.072 1.29834 45.0799 1.29834C45.0601 1.29033 45.0403 1.28632 45.0205 1.27831C45.0007 1.27029 44.9769 1.26228 44.9571 1.25426C44.9333 1.24625 44.9056 1.23823 44.8779 1.23423C44.8541 1.23022 44.8343 1.22621 44.8106 1.22221C44.7947 1.22221 44.7749 1.21419 44.7591 1.21419C44.7472 1.21419 44.7274 1.21419 44.7274 1.21419C44.6838 1.21419 44.6006 1.20618 44.6006 1.20618H33.604H32.5265C31.9165 1.20618 31.3421 1.50271 30.9856 2.00762L8.33482 33.9251C6.63937 36.3134 4.33389 38.1847 1.66001 39.3428L0.348816 39.9118H13.3221C15.794 39.9118 18.1153 38.7057 19.5612 36.674L35.0618 14.8347L44.4303 1.62693C44.561 1.4947 44.7432 1.41054 44.9452 1.41054C45.1948 1.41054 45.4127 1.53477 45.5474 1.72311C45.4364 1.53477 45.2701 1.39051 45.072 1.30235V1.29834Z" fill="#294076"/>
<path d="M71.8742 17.6037L68.7606 2.05168C68.6655 1.58284 68.2734 1.24623 67.8099 1.21417L58.1443 14.8347L61.0994 29.5812L71.8742 17.6037Z" fill="#19264F"/>
<path d="M68.1545 1.29834C68.1545 1.29834 68.1545 1.29834 68.1624 1.29834C68.1426 1.29033 68.1228 1.28632 68.103 1.27831C68.0832 1.27029 68.0594 1.26228 68.0396 1.25426C68.0159 1.24625 67.9881 1.23823 67.9604 1.23423C67.9366 1.23022 67.9168 1.22621 67.8931 1.22221C67.8772 1.22221 67.8574 1.21419 67.8416 1.21419C67.8297 1.21419 67.8099 1.21419 67.8099 1.21419C67.7663 1.21419 67.6831 1.20618 67.6831 1.20618H56.6865H55.609C54.999 1.20618 54.4246 1.50271 54.0681 2.00762L31.4173 33.9291C29.7219 36.3174 27.4164 38.1887 24.7425 39.3468L23.4313 39.9159H36.4046C38.8765 39.9159 41.1978 38.7097 42.6437 36.678L58.1443 14.8387L67.5167 1.63094C67.6475 1.4987 67.8297 1.41455 68.0317 1.41455C68.2813 1.41455 68.4991 1.53878 68.6338 1.72711C68.5229 1.53878 68.3565 1.39452 68.1585 1.30636L68.1545 1.29834Z" fill="#294076"/>
<path d="M90.3221 1.29834C90.3221 1.29834 90.3221 1.29834 90.33 1.29834C90.3102 1.29033 90.2904 1.28632 90.2706 1.27831C90.2508 1.27029 90.227 1.26228 90.2072 1.25426C90.1834 1.24625 90.1557 1.23823 90.128 1.23423C90.1042 1.23022 90.0844 1.22621 90.0606 1.22221C90.0448 1.22221 90.025 1.21419 90.0091 1.21419C89.9972 1.21419 89.9774 1.21419 89.9774 1.21419C89.9338 1.21419 89.8507 1.20618 89.8507 1.20618H78.8541H77.7766C77.1666 1.20618 76.5922 1.50271 76.2356 2.00762L53.5849 33.9291C51.8894 36.3174 49.584 38.1887 46.9101 39.3468L45.5989 39.9159H58.5722C61.044 39.9159 63.3653 38.7097 64.8073 36.678L80.3079 14.8387L89.6803 1.63094C89.8111 1.4987 89.9933 1.41455 90.1953 1.41455C90.4449 1.41455 90.6627 1.53878 90.7974 1.72711C90.6865 1.53878 90.5201 1.39452 90.3221 1.30636V1.29834Z" fill="#294076"/>
<path d="M99.8648 35.6321C99.845 35.3796 99.8014 35.1272 99.7301 34.8747C99.6073 34.4339 99.4211 33.7607 99.2983 33.3199L99.0686 32.3822C98.8705 31.6369 98.6724 30.8916 98.4744 30.1502C98.5259 30.3145 98.5536 30.4868 98.5536 30.6672C98.5536 31.148 98.3635 31.5808 98.0505 31.8974C97.7297 32.222 97.2781 32.3822 96.8265 32.3822H83.4689C82.4984 32.3822 81.6982 31.6089 81.6507 30.6311L81.3536 24.3718L74.7026 33.6085L70.0005 39.9479H95.8599C97.5752 39.9479 99.0408 38.8699 99.635 37.3472C99.7895 36.9545 99.8846 36.5377 99.9123 36.0969C99.9203 35.9407 99.9004 35.7884 99.8688 35.6361L99.8648 35.6321Z" fill="url(#paint0_linear_111_460)"/>
<path d="M220.922 38.7177V33.4241H221.505L223.367 36.6179H223.382L225.236 33.4241H225.846V38.7177H225.272V34.3979H225.256L223.64 37.1428H223.101L221.493 34.3979H221.477V38.7177H220.922Z" fill="#595757"/>
<path d="M227.692 37.0307C227.7 37.4394 227.827 37.764 228.065 38.0044C228.302 38.2408 228.611 38.3611 228.996 38.3611C229.38 38.3611 229.736 38.2649 230.101 38.0725L230.239 38.4813C229.839 38.6856 229.408 38.7858 228.952 38.7858C228.417 38.7858 227.981 38.6095 227.653 38.2569C227.324 37.9042 227.158 37.4314 227.158 36.8303C227.158 36.2292 227.312 35.7443 227.617 35.3917C227.926 35.0431 228.346 34.8668 228.877 34.8668C229.408 34.8668 229.792 35.0311 230.073 35.3637C230.354 35.6963 230.493 36.1691 230.493 36.7942C230.493 36.9064 230.493 36.9866 230.485 37.0266H227.684L227.692 37.0307ZM227.692 36.6139H229.986C229.982 36.1931 229.883 35.8726 229.685 35.6442C229.491 35.4157 229.221 35.3035 228.881 35.3035C228.52 35.3035 228.239 35.4198 228.029 35.6482C227.819 35.8766 227.708 36.2012 227.692 36.6139Z" fill="#595757"/>
<path d="M231.642 36.8343C231.642 36.2012 231.776 35.7163 232.046 35.3797C232.315 35.0431 232.68 34.8748 233.147 34.8748C233.69 34.8748 234.09 35.1072 234.351 35.568H234.367V33.2799H234.894V38.7177H234.391L234.383 38.0805H234.367C234.106 38.5534 233.702 38.7898 233.151 38.7898C232.695 38.7898 232.327 38.6215 232.058 38.2809C231.784 37.9403 231.65 37.4594 231.65 36.8383L231.642 36.8343ZM232.161 36.8343C232.161 37.3192 232.26 37.6959 232.458 37.9603C232.656 38.2248 232.925 38.357 233.266 38.357C233.607 38.357 233.856 38.2288 234.058 37.9724C234.26 37.7159 234.363 37.3512 234.363 36.8864V36.7862C234.363 36.3294 234.26 35.9687 234.054 35.7083C233.848 35.4478 233.587 35.3156 233.262 35.3156C232.913 35.3156 232.64 35.4478 232.446 35.7083C232.252 35.9687 232.157 36.3454 232.157 36.8383L232.161 36.8343Z" fill="#595757"/>
<path d="M236.312 33.4202H240.139V33.9171H238.515V38.7177H237.94V33.9171H236.308V33.4202H236.312Z" fill="#595757"/>
<path d="M241.169 37.0307C241.177 37.4394 241.303 37.764 241.541 38.0044C241.779 38.2408 242.088 38.3611 242.472 38.3611C242.856 38.3611 243.213 38.2649 243.577 38.0725L243.716 38.4813C243.316 38.6856 242.884 38.7858 242.428 38.7858C241.894 38.7858 241.458 38.6095 241.129 38.2569C240.8 37.9042 240.634 37.4314 240.634 36.8303C240.634 36.2292 240.788 35.7443 241.097 35.3917C241.406 35.0431 241.826 34.8668 242.357 34.8668C242.888 34.8668 243.272 35.0311 243.553 35.3637C243.835 35.6963 243.973 36.1691 243.973 36.7942C243.973 36.9064 243.973 36.9866 243.965 37.0266H241.165L241.169 37.0307ZM241.169 36.6139H243.462C243.458 36.1931 243.359 35.8726 243.161 35.6442C242.967 35.4157 242.698 35.3035 242.357 35.3035C241.997 35.3035 241.715 35.4198 241.505 35.6482C241.295 35.8766 241.185 36.2012 241.169 36.6139Z" fill="#595757"/>
<path d="M246.968 35.3195C246.548 35.3195 246.219 35.4518 245.986 35.7122C245.752 35.9727 245.633 36.3494 245.633 36.8343C245.633 37.3191 245.756 37.6678 246.005 37.9403C246.251 38.2168 246.576 38.353 246.972 38.353C247.309 38.353 247.626 38.2688 247.931 38.1045L248.069 38.5293C247.709 38.6976 247.336 38.7858 246.948 38.7858C246.394 38.7858 245.942 38.6095 245.601 38.2528C245.257 37.9002 245.086 37.4233 245.086 36.8303C245.086 36.2372 245.253 35.7363 245.582 35.3917C245.91 35.043 246.366 34.8707 246.948 34.8707C247.336 34.8707 247.709 34.9549 248.069 35.1272L247.931 35.572C247.614 35.4037 247.293 35.3155 246.972 35.3155L246.968 35.3195Z" fill="#595757"/>
<path d="M249.531 33.2799H250.058V35.5961H250.074C250.391 35.1192 250.807 34.8788 251.325 34.8748C251.745 34.8748 252.058 35.007 252.26 35.2715C252.462 35.536 252.565 35.9527 252.565 36.5257V38.7217H252.046V36.5698C252.046 36.101 251.979 35.7764 251.848 35.5961C251.718 35.4158 251.484 35.3236 251.151 35.3236C250.866 35.3236 250.612 35.4638 250.391 35.7483C250.169 36.0329 250.058 36.3494 250.058 36.7021V38.7177H249.531V33.2799Z" fill="#595757"/>
<path d="M258.048 33.8249C257.715 33.8249 257.462 33.897 257.279 34.0453C257.097 34.1935 257.006 34.3979 257.006 34.6624C257.006 35.1312 257.347 35.4678 258.028 35.6762C258.622 35.8525 259.042 36.0689 259.292 36.3254C259.541 36.5858 259.668 36.9224 259.668 37.3392C259.668 37.808 259.521 38.1647 259.236 38.4131C258.947 38.6616 258.535 38.7898 258.004 38.7898C257.41 38.7898 256.883 38.6375 256.424 38.337L256.598 37.8561C257.014 38.1527 257.481 38.3049 258.004 38.3089C258.361 38.3089 258.63 38.2248 258.816 38.0605C259.002 37.8962 259.098 37.6558 259.098 37.3392C259.098 37.0507 259.018 36.8223 258.86 36.6499C258.701 36.4776 258.42 36.3294 258.02 36.2092C256.974 35.8926 256.451 35.3797 256.451 34.6664C256.451 34.2697 256.594 33.9531 256.875 33.7127C257.156 33.4762 257.553 33.356 258.056 33.356C258.598 33.356 259.098 33.4682 259.561 33.6966L259.414 34.1494C258.998 33.9371 258.547 33.8329 258.056 33.8329L258.048 33.8249Z" fill="#595757"/>
<path d="M261.34 37.0307C261.348 37.4394 261.474 37.764 261.712 38.0044C261.95 38.2408 262.259 38.3611 262.643 38.3611C263.027 38.3611 263.384 38.2649 263.748 38.0725L263.887 38.4813C263.487 38.6856 263.055 38.7858 262.599 38.7858C262.065 38.7858 261.629 38.6095 261.3 38.2569C260.971 37.9042 260.805 37.4314 260.805 36.8303C260.805 36.2292 260.959 35.7443 261.264 35.3917C261.573 35.0431 261.993 34.8668 262.524 34.8668C263.055 34.8668 263.439 35.0311 263.72 35.3637C264.002 35.6963 264.14 36.1691 264.14 36.7942C264.14 36.9064 264.14 36.9866 264.132 37.0266H261.332L261.34 37.0307ZM261.34 36.6139H263.633C263.629 36.1931 263.53 35.8726 263.332 35.6442C263.138 35.4157 262.869 35.3035 262.528 35.3035C262.168 35.3035 261.886 35.4198 261.676 35.6482C261.466 35.8766 261.355 36.2012 261.34 36.6139Z" fill="#595757"/>
<path d="M265.436 34.9509H265.955L265.963 35.7523H265.978C266.398 35.1673 266.992 34.8748 267.761 34.8748V35.3356C267.23 35.3356 266.798 35.4839 266.47 35.7764C266.141 36.0729 265.974 36.4536 265.974 36.9184V38.7177H265.436V34.9509Z" fill="#595757"/>
<path d="M269.413 34.9509L270.566 38.3891H270.581L271.742 34.9509H272.309L270.938 38.7176H270.189L268.827 34.9509H269.413Z" fill="#595757"/>
<path d="M273.81 34.0773V33.2759H274.368V34.0773H273.81ZM273.81 38.7137V34.9469H274.368V38.7137H273.81Z" fill="#595757"/>
<path d="M277.787 35.3195C277.367 35.3195 277.038 35.4518 276.805 35.7122C276.571 35.9727 276.452 36.3494 276.452 36.8343C276.452 37.3191 276.575 37.6678 276.824 37.9403C277.07 38.2168 277.395 38.353 277.791 38.353C278.128 38.353 278.445 38.2688 278.75 38.1045L278.888 38.5293C278.528 38.6976 278.155 38.7858 277.767 38.7858C277.213 38.7858 276.761 38.6095 276.42 38.2528C276.076 37.9002 275.905 37.4233 275.905 36.8303C275.905 36.2372 276.072 35.7363 276.401 35.3917C276.729 35.043 277.185 34.8707 277.767 34.8707C278.155 34.8707 278.528 34.9549 278.888 35.1272L278.75 35.572C278.433 35.4037 278.112 35.3155 277.791 35.3155L277.787 35.3195Z" fill="#595757"/>
<path d="M280.596 37.0307C280.604 37.4394 280.73 37.764 280.968 38.0044C281.206 38.2408 281.515 38.3611 281.899 38.3611C282.283 38.3611 282.64 38.2649 283.004 38.0725L283.143 38.4813C282.743 38.6856 282.311 38.7858 281.855 38.7858C281.32 38.7858 280.885 38.6095 280.556 38.2569C280.227 37.9042 280.061 37.4314 280.061 36.8303C280.061 36.2292 280.215 35.7443 280.52 35.3917C280.829 35.0431 281.249 34.8668 281.78 34.8668C282.311 34.8668 282.695 35.0311 282.976 35.3637C283.258 35.6963 283.396 36.1691 283.396 36.7942C283.396 36.9064 283.396 36.9866 283.388 37.0266H280.588L280.596 37.0307ZM280.596 36.6139H282.889C282.885 36.1931 282.786 35.8726 282.588 35.6442C282.394 35.4157 282.125 35.3035 281.784 35.3035C281.423 35.3035 281.142 35.4198 280.932 35.6482C280.722 35.8766 280.611 36.2012 280.596 36.6139Z" fill="#595757"/>
<path d="M285.924 34.8707C286.379 34.8707 286.803 34.9669 287.191 35.1593L287.072 35.592C286.704 35.4037 286.32 35.3075 285.924 35.3075C285.65 35.3075 285.44 35.3596 285.294 35.4598C285.147 35.56 285.076 35.7042 285.076 35.8886C285.076 36.0729 285.139 36.2011 285.262 36.3013C285.385 36.4015 285.615 36.4816 285.951 36.5377C286.435 36.6179 286.787 36.7541 287.001 36.9425C287.215 37.1308 287.322 37.3913 287.322 37.7159C287.322 38.0405 287.199 38.3049 286.95 38.4933C286.704 38.6856 286.359 38.7818 285.92 38.7818C285.409 38.7818 284.945 38.6616 284.541 38.4211L284.668 37.9964C285.06 38.2328 285.476 38.349 285.92 38.349C286.197 38.349 286.407 38.2929 286.557 38.1847C286.708 38.0765 286.783 37.9202 286.783 37.7159C286.783 37.5115 286.716 37.3712 286.585 37.2671C286.45 37.1629 286.221 37.0787 285.896 37.0146C285.424 36.9345 285.08 36.8022 284.866 36.6219C284.652 36.4416 284.545 36.1931 284.545 35.8806C284.545 35.568 284.668 35.3196 284.909 35.1392C285.151 34.9549 285.492 34.8627 285.924 34.8627V34.8707Z" fill="#595757"/>
<path d="M148.335 20.9016C148.597 20.8535 148.835 20.9016 149.044 21.0539C149.27 21.2061 149.401 21.4145 149.437 21.675C149.488 21.9394 149.437 22.1799 149.286 22.3923C148.316 23.8148 147.064 24.9288 145.535 25.7343C144.018 26.5397 142.405 26.9445 140.702 26.9445C137.802 26.9445 135.334 25.9106 133.29 23.8469C131.25 21.7832 130.228 19.2907 130.228 16.3694C130.228 13.4482 131.25 10.9397 133.29 8.87193C135.33 6.80421 137.802 5.77435 140.702 5.77435C143.602 5.77435 146.054 6.80821 148.094 8.87193C150.134 10.9356 151.156 13.4361 151.156 16.3694C151.156 16.6339 151.061 16.8623 150.875 17.0506C150.688 17.227 150.463 17.3151 150.201 17.3151H132.189C132.399 19.3308 133.215 21.0539 134.633 22.4884C136.313 24.1755 138.333 25.017 140.698 25.017C142.104 25.017 143.423 24.6884 144.655 24.0352C145.899 23.382 146.925 22.4684 147.733 21.2983C147.884 21.0859 148.082 20.9537 148.331 20.9016H148.335ZM132.189 15.4077H149.195C148.985 13.3921 148.169 11.669 146.751 10.2344C145.083 8.54734 143.067 7.70583 140.702 7.70583C138.337 7.70583 136.317 8.55135 134.637 10.2344C133.219 11.669 132.403 13.3961 132.193 15.4077H132.189Z" fill="#231815"/>
<path d="M196.303 25.9827C196.303 26.2472 196.208 26.4756 196.022 26.664C195.835 26.8523 195.61 26.9485 195.348 26.9485C195.087 26.9485 194.861 26.8523 194.675 26.664C194.489 26.4756 194.394 26.2472 194.394 25.9827V0.96171C194.394 0.697234 194.489 0.468823 194.675 0.280484C194.861 0.0921448 195.087 -0.00402832 195.348 -0.00402832C195.61 -0.00402832 195.835 0.0921448 196.022 0.280484C196.208 0.468823 196.303 0.697234 196.303 0.96171V25.9787V25.9827Z" fill="#898989"/>
<path d="M200.973 25.9827C200.973 26.2472 200.878 26.4756 200.692 26.664C200.506 26.8523 200.28 26.9485 200.019 26.9485C199.757 26.9485 199.531 26.8523 199.345 26.664C199.159 26.4756 199.064 26.2472 199.064 25.9827V0.96171C199.064 0.697234 199.159 0.468823 199.345 0.280484C199.531 0.0921448 199.757 -0.00402832 200.019 -0.00402832C200.28 -0.00402832 200.506 0.0921448 200.692 0.280484C200.878 0.468823 200.973 0.697234 200.973 0.96171V25.9787V25.9827Z" fill="#898989"/>
<path d="M204.923 25.9827C204.923 26.2472 204.828 26.4756 204.641 26.664C204.455 26.8523 204.229 26.9485 203.968 26.9485C203.707 26.9485 203.481 26.8523 203.295 26.664C203.108 26.4756 203.013 26.2472 203.013 25.9827V6.74009C203.013 6.47562 203.108 6.2472 203.295 6.05887C203.481 5.87053 203.707 5.77435 203.968 5.77435C204.229 5.77435 204.455 5.87053 204.641 6.05887C204.828 6.2472 204.923 6.47562 204.923 6.74009V25.9787V25.9827Z" fill="#898989"/>
<path d="M227.098 25.9827C227.098 26.2472 227.003 26.4756 226.817 26.664C226.631 26.8523 226.405 26.9485 226.143 26.9485C225.882 26.9485 225.656 26.8523 225.47 26.664C225.284 26.4756 225.189 26.2472 225.189 25.9827V22.4524C224.84 22.9573 224.456 23.4221 224.032 23.8509C221.992 25.9146 219.528 26.9485 216.64 26.9485C213.752 26.9485 211.273 25.9146 209.229 23.8509C207.189 21.7872 206.167 19.2947 206.167 16.3735C206.167 13.4522 207.189 10.9437 209.229 8.87596C211.269 6.80823 213.741 5.77838 216.64 5.77838C219.54 5.77838 221.992 6.81224 224.032 8.87596C226.072 10.9397 227.094 13.4402 227.094 16.3735V25.9827H227.098ZM216.644 7.70585C214.279 7.70585 212.259 8.55137 210.579 10.2344C208.912 11.9335 208.08 13.9811 208.08 16.3694C208.08 18.7577 208.912 20.8014 210.579 22.4885C212.259 24.1755 214.279 25.017 216.644 25.017C219.009 25.017 221.025 24.1755 222.693 22.4885C224.361 20.8014 225.193 18.7617 225.193 16.3694C225.193 13.9771 224.357 11.9335 222.693 10.2344C221.025 8.54737 219.009 7.70585 216.644 7.70585Z" fill="#898989"/>
<path d="M249.515 25.9827C249.515 26.2472 249.42 26.4756 249.234 26.664C249.048 26.8523 248.822 26.9485 248.561 26.9485C248.299 26.9485 248.073 26.8523 247.887 26.664C247.701 26.4756 247.606 26.2472 247.606 25.9827V16.3735C247.606 13.9811 246.77 11.9375 245.106 10.2384C243.439 8.55137 241.422 7.70986 239.057 7.70986C236.692 7.70986 234.672 8.55538 232.993 10.2384C231.325 11.9375 230.493 13.9852 230.493 16.3735V25.9827C230.493 26.2472 230.402 26.4756 230.212 26.664C230.026 26.8523 229.8 26.9485 229.538 26.9485C229.277 26.9485 229.051 26.8523 228.865 26.664C228.679 26.4756 228.584 26.2472 228.584 25.9827V16.3735C228.584 13.4402 229.606 10.9437 231.646 8.87596C233.686 6.81224 236.158 5.77838 239.057 5.77838C241.957 5.77838 244.409 6.81224 246.449 8.87596C248.489 10.9397 249.511 13.4402 249.511 16.3735V25.9827H249.515Z" fill="#898989"/>
<path d="M267.836 22.0356C268.098 22.0236 268.323 22.1118 268.51 22.3001C268.696 22.4764 268.795 22.6968 268.807 22.9613C268.807 23.2258 268.72 23.4582 268.545 23.6585C267.551 24.7044 266.398 25.5139 265.091 26.0949C263.772 26.6599 262.397 26.9445 260.967 26.9445C258.068 26.9445 255.6 25.9106 253.556 23.8469C251.516 21.7832 250.494 19.2907 250.494 16.3694C250.494 13.4482 251.516 10.9397 253.556 8.87193C255.596 6.80821 258.068 5.77435 260.967 5.77435C262.397 5.77435 263.772 6.05887 265.091 6.62388L265.127 6.64392C266.422 7.22496 267.559 8.03041 268.541 9.06027C268.716 9.26063 268.803 9.49305 268.803 9.76153C268.791 10.026 268.692 10.2464 268.506 10.4227C268.319 10.6111 268.094 10.6992 267.832 10.6872C267.571 10.6872 267.345 10.595 267.159 10.4027C266.363 9.54514 265.436 8.88796 264.378 8.41911L264.323 8.39908C263.253 7.93424 262.132 7.70182 260.963 7.70182C258.598 7.70182 256.578 8.54734 254.899 10.2304C253.231 11.9294 252.399 13.9771 252.399 16.3654C252.399 18.7537 253.231 20.7974 254.899 22.4844C256.578 24.1715 258.598 25.013 260.963 25.013C262.132 25.013 263.253 24.7806 264.323 24.3157H264.342C265.412 23.8509 266.351 23.1817 267.163 22.3161C267.349 22.1278 267.575 22.0316 267.836 22.0316V22.0356Z" fill="#898989"/>
<path d="M286.831 20.9016C287.092 20.8535 287.33 20.9016 287.54 21.0539C287.766 21.2061 287.896 21.4145 287.932 21.675C287.983 21.9394 287.932 22.1799 287.781 22.3923C286.811 23.8148 285.559 24.9288 284.03 25.7343C282.513 26.5397 280.901 26.9445 279.197 26.9445C276.298 26.9445 273.83 25.9106 271.786 23.8469C269.746 21.7832 268.724 19.2907 268.724 16.3694C268.724 13.4482 269.746 10.9397 271.786 8.87193C273.826 6.80821 276.298 5.77435 279.197 5.77435C282.097 5.77435 284.549 6.80821 286.589 8.87193C288.629 10.9356 289.651 13.4361 289.651 16.3694C289.651 16.6339 289.556 16.8623 289.37 17.0506C289.184 17.227 288.958 17.3151 288.696 17.3151H270.684C270.894 19.3308 271.71 21.0539 273.128 22.4884C274.808 24.1755 276.828 25.017 279.193 25.017C280.6 25.017 281.919 24.6884 283.151 24.0352C284.394 23.382 285.42 22.4684 286.229 21.2983C286.379 21.0859 286.577 20.9537 286.827 20.9016H286.831ZM270.684 15.4077H287.69C287.48 13.3921 286.664 11.669 285.246 10.2344C283.578 8.54734 281.562 7.70583 279.197 7.70583C276.832 7.70583 274.812 8.55135 273.132 10.2344C271.714 11.669 270.898 13.3961 270.688 15.4077H270.684Z" fill="#898989"/>
<path d="M189.073 8.84391C187.033 6.7802 184.569 5.74634 181.682 5.74634C179.004 5.74634 176.698 6.63995 174.753 8.39911C174.591 8.54337 174.429 8.68763 174.27 8.84391C174.032 9.08435 173.822 9.33279 173.612 9.58525V14.3218C173.842 13.0475 174.326 11.8774 175.07 10.8195C175.241 10.6111 175.415 10.4027 175.613 10.2064C177.293 8.51933 179.313 7.67781 181.678 7.67781C184.043 7.67781 186.059 8.52334 187.727 10.2064C189.394 11.9054 190.226 13.9531 190.226 16.3414C190.226 18.7297 189.394 20.7734 187.727 22.4604C186.059 24.1475 184.043 24.989 181.678 24.989C179.313 24.989 177.293 24.1475 175.613 22.4604C174.076 20.9056 173.256 19.0423 173.137 16.8864H171.232C171.355 19.5712 172.357 21.8874 174.27 23.8189C176.31 25.8826 178.782 26.9164 181.682 26.9164C184.581 26.9164 187.033 25.8826 189.073 23.8189C189.497 23.3901 189.882 22.9253 190.23 22.4204V25.9507C190.23 26.2152 190.325 26.4436 190.511 26.6319C190.698 26.8203 190.923 26.9164 191.185 26.9164C191.446 26.9164 191.672 26.8203 191.858 26.6319C192.044 26.4436 192.14 26.2152 192.14 25.9507V16.3414C192.14 13.4081 191.118 10.9116 189.077 8.84391H189.073Z" fill="#898989"/>
<path d="M162.675 7.70186C165.04 7.70186 167.056 8.54739 168.724 10.2304C170.281 11.8173 171.101 13.7087 171.204 15.8966C171.204 15.9607 171.208 16.8503 171.212 16.9104H173.129V0.961731C173.129 0.697255 173.034 0.472851 172.848 0.284512C172.662 0.0961731 172.436 0 172.175 0C171.913 0 171.687 0.0921659 171.501 0.284512C171.315 0.472851 171.22 0.701262 171.22 0.961731V10.2705C170.871 9.76558 170.487 9.30074 170.063 8.87197C168.023 6.80825 165.559 5.77439 162.671 5.77439C159.784 5.77439 157.304 6.80825 155.26 8.87197C153.22 10.9357 152.198 13.4362 152.198 16.3695C152.198 19.3027 153.22 21.7832 155.26 23.8469C157.3 25.9106 159.772 26.9445 162.671 26.9445C165.571 26.9445 168.023 25.9106 170.063 23.8469C170.364 23.5424 171.719 22.0838 171.976 21.7592C171.976 21.7592 170.859 19.984 170.891 18.5895C170.812 18.906 170.598 20 169.984 20.8535H169.992C169.639 21.4306 169.223 21.9756 168.72 22.4885C167.053 24.1755 165.036 25.017 162.671 25.017C160.306 25.017 158.286 24.1755 156.607 22.4885C154.939 20.8014 154.107 18.7618 154.107 16.3695C154.107 13.9772 154.939 11.9335 156.607 10.2344C158.286 8.54739 160.306 7.70587 162.671 7.70587L162.675 7.70186Z" fill="#231815"/>
<path d="M108.322 28.1586C107.787 28.1586 107.356 27.7219 107.356 27.1809V5.44978C107.356 4.78458 107.78 4.21555 108.409 4.03122C109.039 3.84689 109.701 4.09935 110.053 4.66035L117.865 17.1829C117.865 17.1829 117.905 17.243 117.976 17.243C118.047 17.243 118.075 17.1949 118.087 17.1789L125.764 4.56017C126.108 3.99115 126.77 3.73068 127.408 3.91101C128.046 4.09133 128.469 4.66436 128.469 5.33357V26.8763C128.469 27.4173 128.038 27.8541 127.503 27.8541C126.968 27.8541 126.536 27.4173 126.536 26.8763V7.0166L119.731 18.2047C119.354 18.8218 118.701 19.1945 117.988 19.1985H117.976C117.263 19.1985 116.613 18.8339 116.233 18.2248L109.289 7.09674V27.1809C109.289 27.7219 108.857 28.1586 108.322 28.1586Z" fill="#231815"/>
</g>
<defs>
<linearGradient id="paint0_linear_111_460" x1="70.0005" y1="32.1578" x2="99.9123" y2="32.1578" gradientUnits="userSpaceOnUse">
<stop stop-color="#1A2D55"/>
<stop offset="1" stop-color="#294076"/>
</linearGradient>
<clipPath id="clip0_111_460">
<rect width="289.302" height="40" fill="white" transform="translate(0.348816)"/>
</clipPath>
</defs>
</svg>
